<svg width="400" height="120" viewBox="0 0 400 120" fill="none" xmlns="http://www.w3.org/2000/svg">
<g clip-path="url(#clip0_822_2)">
<path d="M7.73255 89.4728H0V118.619H7.73255V89.4728Z" fill="white"/>
<path d="M29.2136 89.4728H39.0714L48.8965 109.265H48.9782L48.8474 89.4728H55.9261V118.619H46.3135L36.1615 98.6958H36.0797L36.325 118.619H29.2136V89.4728Z" fill="white"/>
<path d="M77.8813 89.4728H97.319V94.9705H85.6302V101.371H96.8122V106.885H85.6302V118.619H77.8813V89.4728Z" fill="white"/>
<path d="M131.339 88.9641C140.902 88.9641 145.905 94.6915 145.905 104.029C145.905 113.302 140.821 119.111 131.339 119.111C121.857 119.111 116.773 113.302 116.773 104.029C116.773 94.6915 121.775 88.9641 131.339 88.9641ZM131.339 113.351C136.047 113.351 137.911 108.838 137.911 104.046C137.911 98.9912 136.047 94.7408 131.339 94.7408C126.631 94.7408 124.767 98.9912 124.767 104.046C124.767 108.838 126.631 113.351 131.339 113.351Z" fill="white"/>
<path d="M173.386 89.4728H182.867L194.066 118.619H185.581L183.423 112.399H172.519L170.231 118.619H162.367L173.386 89.4728ZM178.127 95.4793H178.045L174.301 106.885H181.576L178.127 95.4793Z" fill="white"/>
<path d="M235.818 117.946C233.611 118.487 231.159 119.111 227.203 119.111C219.47 119.111 210.528 115.189 210.528 104.161C210.528 94.0187 217.607 88.9641 227.17 88.9641C230.129 88.9641 232.99 89.637 235.786 90.4739L235.164 96.7757C232.663 95.3972 230.26 94.7244 227.595 94.7244C222.102 94.7244 218.522 98.7286 218.522 104.161C218.522 109.888 222.56 113.351 228.216 113.351C230.75 113.351 233.333 112.678 235.459 111.841L235.818 117.946Z" fill="white"/>
<path d="M263.119 95.2331H255.959V89.4728H278.012V95.2331H270.852V118.619H263.119V95.2331Z" fill="white"/>
<path d="M307.062 89.4728H299.33V118.619H307.062V89.4728Z" fill="white"/>
<path d="M340.837 88.9641C350.4 88.9641 355.403 94.6915 355.403 104.029C355.403 113.302 350.335 119.111 340.837 119.111C331.355 119.111 326.271 113.302 326.271 104.029C326.271 94.6915 331.257 88.9641 340.837 88.9641ZM340.837 113.351C345.529 113.351 347.409 108.838 347.409 104.046C347.409 98.9912 345.529 94.7408 340.837 94.7408C336.129 94.7408 334.265 98.9912 334.265 104.046C334.265 108.838 336.129 113.351 340.837 113.351Z" fill="white"/>
<path d="M373.288 89.4728H383.145L392.97 109.265H393.052L392.921 89.4728H400V118.619H390.387L380.235 98.6958H380.154L380.399 118.619H373.288V89.4728Z" fill="white"/>
<path d="M133.497 58.8827C135.344 43.6369 142.292 29.9665 152.575 19.644L166.16 33.2815C150.401 33.2979 137.159 44.1784 133.497 58.8827Z" fill="white"/>
<path d="M158.738 14.1791C170.083 5.30076 184.339 0 199.853 0V19.2993C188.704 8.10704 171.686 6.40029 158.738 14.1791Z" fill="white"/>
<path d="M208.027 0.492325C223.214 2.36318 236.832 9.32145 247.115 19.644L233.53 33.2815C233.513 17.4613 222.675 4.16839 208.027 0.492325Z" fill="white"/>
<path d="M252.559 25.8473C261.419 37.2366 266.683 51.547 266.683 67.1046H247.458C258.624 55.9123 260.307 38.8284 252.559 25.8473Z" fill="white"/>
<path d="M154.602 61.4921C155.861 51.1039 160.602 41.7824 167.615 34.7421L176.884 44.0472C166.127 44.0472 157.103 51.4813 154.602 61.4921Z" fill="white"/>
<path d="M171.816 31.0168C179.549 24.9611 189.276 21.3507 199.836 21.3507V34.4959C192.251 26.8812 180.644 25.7161 171.816 31.0168Z" fill="white"/>
<path d="M205.427 21.6954C215.776 22.959 225.061 27.7182 232.075 34.7585L222.805 44.0636C222.805 33.2487 215.4 24.1898 205.427 21.6954Z" fill="white"/>
<path d="M235.786 38.9762C241.818 46.7386 245.414 56.5031 245.414 67.1046H232.32C239.922 59.4735 241.066 47.8217 235.786 38.9762Z" fill="white"/>
<path d="M169.103 63.2973C169.969 56.2405 173.173 49.9059 177.947 45.1139L184.241 51.4321C176.933 51.4321 170.803 56.4867 169.103 63.2973Z" fill="white"/>
<path d="M180.808 42.5866C186.055 38.4674 192.676 36.0222 199.853 36.0222V44.9662C194.687 39.7639 186.791 38.9762 180.808 42.5866Z" fill="white"/>
<path d="M203.629 36.2355C210.675 37.1053 216.969 40.3383 221.743 45.1139L215.449 51.4321C215.449 44.0964 210.43 37.9422 203.629 36.2355Z" fill="white"/>
<path d="M224.277 47.9858C228.38 53.2537 230.832 59.9002 230.832 67.1046H221.923C227.072 61.9187 227.857 54.0086 224.277 47.9858Z" fill="white"/>
</g>
<defs>
<clipPath id="clip0_822_2">
<rect width="400" height="119.111" fill="white"/>
</clipPath>
</defs>
</svg>
