<svg width="1200" height="600" viewBox="0 0 1200 600" fill="none" xmlns="http://www.w3.org/2000/svg">
<g clip-path="url(#clip0_822_27)">
<path d="M1325.62 486.111L1200 520L1330 540.556L1325.62 486.111Z" fill="#007070" stroke="#007070" stroke-width="1.51"/>
<path d="M1200 520L1260 595.556L1330 540.556L1200 520Z" fill="#007070" stroke="#007070" stroke-width="1.51"/>
<path d="M1304.38 460.556L1200 520L1325.62 486.111L1304.38 460.556Z" fill="#0A7373" stroke="#0A7373" stroke-width="1.51"/>
<path d="M1245 400L1200 520L1304.38 460.556L1245 400Z" fill="#137777" stroke="#137777" stroke-width="1.51"/>
<path d="M1146.25 435.556L1200 520L1245 400L1146.25 435.556Z" fill="#157878" stroke="#157878" stroke-width="1.51"/>
<path d="M1148.12 -23.3333L1206.25 46.1111L1255 -57.2222L1148.12 -23.3333Z" fill="#007070" stroke="#007070" stroke-width="1.51"/>
<path d="M1186.88 169.444L1236.25 219.444L1255.62 141.111L1186.88 169.444Z" fill="#1C7C7C" stroke="#1C7C7C" stroke-width="1.51"/>
<path d="M1236.25 219.444L1130 307.778L1257.5 320L1236.25 219.444Z" fill="#3A8A8A" stroke="#3A8A8A" stroke-width="1.51"/>
<path d="M1200 520L1176.25 542.222L1260 595.556L1200 520Z" fill="#007070" stroke="#007070" stroke-width="1.51"/>
<path d="M1257.5 320L1180.62 365L1271.87 364.444L1257.5 320Z" fill="#318686" stroke="#318686" stroke-width="1.51"/>
<path d="M1180.62 365L1245 400L1271.87 364.444L1180.62 365Z" fill="#2A8282" stroke="#2A8282" stroke-width="1.51"/>
<path d="M1117.5 254.444L1130 307.778L1236.25 219.444L1117.5 254.444Z" fill="#348787" stroke="#348787" stroke-width="1.51"/>
<path d="M1254.38 72.2222L1173.75 75L1255.62 141.111L1254.38 72.2222Z" fill="#047171" stroke="#047171" stroke-width="1.51"/>
<path d="M1173.75 75L1186.88 169.444L1255.62 141.111L1173.75 75Z" fill="#107676" stroke="#107676" stroke-width="1.51"/>
<path d="M1130.62 628.333L1256.88 632.222L1260 595.556L1130.62 628.333Z" fill="#007070" stroke="#007070" stroke-width="1.51"/>
<path d="M1176.25 542.222L1130.62 628.333L1260 595.556L1176.25 542.222Z" fill="#007070" stroke="#007070" stroke-width="1.51"/>
<path d="M1130 307.778L1180.62 365L1257.5 320L1130 307.778Z" fill="#378888" stroke="#378888" stroke-width="1.51"/>
<path d="M1206.25 46.1111L1173.75 75L1254.38 72.2222L1206.25 46.1111Z" fill="#007070" stroke="#007070" stroke-width="1.51"/>
<path d="M1180.62 365L1146.25 435.556L1245 400L1180.62 365Z" fill="#227F7F" stroke="#227F7F" stroke-width="1.51"/>
<path d="M1133.75 210L1117.5 254.444L1236.25 219.444L1133.75 210Z" fill="#2B8383" stroke="#2B8383" stroke-width="1.51"/>
<path d="M1186.88 169.444L1133.75 210L1236.25 219.444L1186.88 169.444Z" fill="#227F7F" stroke="#227F7F" stroke-width="1.51"/>
<path d="M1173.75 75L1101.25 137.222L1186.88 169.444L1173.75 75Z" fill="#107676" stroke="#107676" stroke-width="1.51"/>
<path d="M1146.25 435.556L1125.62 510L1200 520L1146.25 435.556Z" fill="#0A7373" stroke="#0A7373" stroke-width="1.51"/>
<path d="M1135.62 3.33331L1173.75 75L1206.25 46.1111L1135.62 3.33331Z" fill="#007070" stroke="#007070" stroke-width="1.51"/>
<path d="M1148.12 -23.3333L1135.62 3.33336L1206.25 46.1111L1148.12 -23.3333Z" fill="#007070" stroke="#007070" stroke-width="1.51"/>
<path d="M1121.25 409.444L1146.25 435.556L1180.62 365L1121.25 409.444Z" fill="#217F7F" stroke="#217F7F" stroke-width="1.51"/>
<path d="M1125.62 510L1176.25 542.222L1200 520L1125.62 510Z" fill="#007070" stroke="#007070" stroke-width="1.51"/>
<path d="M1098.75 94.4444L1101.25 137.222L1173.75 75L1098.75 94.4444Z" fill="#077272" stroke="#077272" stroke-width="1.51"/>
<path d="M1117.5 254.444L1111.25 282.778L1130 307.778L1117.5 254.444Z" fill="#3A8A8A" stroke="#3A8A8A" stroke-width="1.51"/>
<path d="M1130 307.778L1116.25 366.111L1180.62 365L1130 307.778Z" fill="#328686" stroke="#328686" stroke-width="1.51"/>
<path d="M1116.25 366.111L1121.25 409.444L1180.62 365L1116.25 366.111Z" fill="#298282" stroke="#298282" stroke-width="1.51"/>
<path d="M1101.25 137.222L1133.75 210L1186.88 169.444L1101.25 137.222Z" fill="#1B7C7C" stroke="#1B7C7C" stroke-width="1.51"/>
<path d="M1125.62 510L1052.5 541.111L1130.62 628.333L1125.62 510Z" fill="#007070" stroke="#007070" stroke-width="1.51"/>
<path d="M1125.62 510L1130.62 628.333L1176.25 542.222L1125.62 510Z" fill="#007070" stroke="#007070" stroke-width="1.51"/>
<path d="M1135.62 3.33331L1098.75 94.4444L1173.75 75L1135.62 3.33331Z" fill="#007070" stroke="#007070" stroke-width="1.51"/>
<path d="M1053.75 32.7778L1098.75 94.4444L1135.62 3.33331L1053.75 32.7778Z" fill="#007070" stroke="#007070" stroke-width="1.51"/>
<path d="M1058.75 476.667L1125.62 510L1146.25 435.556L1058.75 476.667Z" fill="#0F7575" stroke="#0F7575" stroke-width="1.51"/>
<path d="M1121.25 409.444L1058.75 476.667L1146.25 435.556L1121.25 409.444Z" fill="#187A7A" stroke="#187A7A" stroke-width="1.51"/>
<path d="M1120.62 -31.1111L1135.62 3.33337L1148.12 -23.3333L1120.62 -31.1111Z" fill="#007070" stroke="#007070" stroke-width="1.51"/>
<path d="M1052.5 541.111L1019.37 556.111L1101.88 655L1052.5 541.111Z" fill="#007070" stroke="#007070" stroke-width="1.51"/>
<path d="M1052.5 541.111L1101.88 655L1130.62 628.333L1052.5 541.111Z" fill="#007070" stroke="#007070" stroke-width="1.51"/>
<path d="M1101.25 137.222L988.75 210H1133.75L1101.25 137.222Z" fill="#1E7D7D" stroke="#1E7D7D" stroke-width="1.51"/>
<path d="M1120.62 -31.1111L1053.75 32.7778L1135.62 3.33336L1120.62 -31.1111Z" fill="#007070" stroke="#007070" stroke-width="1.51"/>
<path d="M1027.5 344.444L1116.25 366.111L1130 307.778L1027.5 344.444Z" fill="#348787" stroke="#348787" stroke-width="1.51"/>
<path d="M988.75 210L1117.5 254.444L1133.75 210H988.75Z" fill="#2A8382" stroke="#2A8382" stroke-width="1.51"/>
<path d="M1111.25 282.778L1027.5 344.444L1130 307.778L1111.25 282.778Z" fill="#3B8B8B" stroke="#3B8B8B" stroke-width="1.51"/>
<path d="M1048.12 -49.4445L1053.75 32.7778L1120.62 -31.1111L1048.12 -49.4445Z" fill="#007070" stroke="#007070" stroke-width="1.51"/>
<path d="M1058.75 476.667L1052.5 541.111L1125.62 510L1058.75 476.667Z" fill="#027171" stroke="#027171" stroke-width="1.51"/>
<path d="M1053.75 32.7778L1043.12 77.2222L1098.75 94.4444L1053.75 32.7778Z" fill="#007070" stroke="#007070" stroke-width="1.51"/>
<path d="M1019.38 556.111L985 626.667L1101.88 655L1019.38 556.111Z" fill="#007070" stroke="#007070" stroke-width="1.51"/>
<path d="M1010 449.444L1058.75 476.667L1121.25 409.444L1010 449.444Z" fill="#177979" stroke="#177979" stroke-width="1.51"/>
<path d="M1116.25 366.111L1027.5 344.444L1121.25 409.444L1116.25 366.111Z" fill="#2B8383" stroke="#2B8383" stroke-width="1.51"/>
<path d="M1027.5 344.444L1010 449.444L1121.25 409.444L1027.5 344.444Z" fill="#227F7F" stroke="#227F7F" stroke-width="1.51"/>
<path d="M988.75 273.889L1111.25 282.778L1117.5 254.444L988.75 273.889Z" fill="#378888" stroke="#378888" stroke-width="1.51"/>
<path d="M988.75 210V273.889L1117.5 254.444L988.75 210Z" fill="#308585" stroke="#308585" stroke-width="1.51"/>
<path d="M975 175L988.75 210L1101.25 137.222L975 175Z" fill="#1C7C7C" stroke="#1C7C7C" stroke-width="1.51"/>
<path d="M988.75 273.889L1027.5 344.444L1111.25 282.778L988.75 273.889Z" fill="#3E8C8C" stroke="#3E8C8C" stroke-width="1.51"/>
<path d="M1098.75 94.4445L1043.12 77.2222L1101.25 137.222L1098.75 94.4445Z" fill="#077272" stroke="#077272" stroke-width="1.51"/>
<path d="M1043.12 77.2222L975 175L1101.25 137.222L1043.12 77.2222Z" fill="#107676" stroke="#107676" stroke-width="1.51"/>
<path d="M944.375 408.889L1010 449.444L1027.5 344.444L944.375 408.889Z" fill="#227F7F" stroke="#227F7F" stroke-width="1.51"/>
<path d="M928.75 117.222L975 175L1043.12 77.2222L928.75 117.222Z" fill="#0E7575" stroke="#0E7575" stroke-width="1.51"/>
<path d="M1011.88 484.444L1019.38 556.111L1052.5 541.111L1011.88 484.444Z" fill="#007070" stroke="#007070" stroke-width="1.51"/>
<path d="M1048.12 -49.4445L980 22.7778L1053.75 32.7778L1048.12 -49.4445Z" fill="#007070" stroke="#007070" stroke-width="1.51"/>
<path d="M1011.88 484.444L1052.5 541.111L1058.75 476.667L1011.88 484.444Z" fill="#067272" stroke="#067272" stroke-width="1.51"/>
<path d="M1010 449.444L1011.87 484.444L1058.75 476.667L1010 449.444Z" fill="#107676" stroke="#107676" stroke-width="1.51"/>
<path d="M980 22.7778L1043.12 77.2222L1053.75 32.7778L980 22.7778Z" fill="#007070" stroke="#007070" stroke-width="1.51"/>
<path d="M1002.5 -98.3333L980 22.7778L1048.12 -49.4444L1002.5 -98.3333Z" fill="#007070" stroke="#007070" stroke-width="1.51"/>
<path d="M914.375 -11.1111L980 22.7778L1002.5 -98.3333L914.375 -11.1111Z" fill="#027070" stroke="#027070" stroke-width="1.51"/>
<path d="M980 22.7778L928.75 117.222L1043.12 77.2222L980 22.7778Z" fill="#007070" stroke="#007070" stroke-width="1.51"/>
<path d="M1011.87 484.444L958.125 574.444L1019.37 556.111L1011.87 484.444Z" fill="#007070" stroke="#007070" stroke-width="1.51"/>
<path d="M958.125 574.444L985 626.667L1019.37 556.111L958.125 574.444Z" fill="#007070" stroke="#007070" stroke-width="1.51"/>
<path d="M951.25 306.111L921.25 372.222L1027.5 344.444L951.25 306.111Z" fill="#348787" stroke="#348787" stroke-width="1.51"/>
<path d="M921.25 372.222L944.375 408.889L1027.5 344.444L921.25 372.222Z" fill="#2B8483" stroke="#2B8483" stroke-width="1.51"/>
<path d="M988.75 273.889L951.25 306.111L1027.5 344.444L988.75 273.889Z" fill="#3C8B8B" stroke="#3C8B8B" stroke-width="1.51"/>
<path d="M900.625 526.667L958.125 574.444L1011.88 484.444L900.625 526.667Z" fill="#047171" stroke="#047171" stroke-width="1.51"/>
<path d="M928.75 117.222L926.875 147.222L975 175L928.75 117.222Z" fill="#197B7B" stroke="#197B7B" stroke-width="1.51"/>
<path d="M1010 449.444L944.375 408.889L1011.87 484.444L1010 449.444Z" fill="#167979" stroke="#167979" stroke-width="1.51"/>
<path d="M944.375 408.889L900.625 526.667L1011.88 484.444L944.375 408.889Z" fill="#147777" stroke="#147777" stroke-width="1.51"/>
<path d="M912.5 18.8889L928.75 117.222L980 22.7778L912.5 18.8889Z" fill="#077272" stroke="#077272" stroke-width="1.51"/>
<path d="M944.375 200.556L988.75 273.889V210L944.375 200.556Z" fill="#2B8383" stroke="#2B8383" stroke-width="1.51"/>
<path d="M944.375 200.556L951.25 306.111L988.75 273.889L944.375 200.556Z" fill="#368888" stroke="#368888" stroke-width="1.51"/>
<path d="M975 175L944.375 200.556L988.75 210L975 175Z" fill="#217F7F" stroke="#217F7F" stroke-width="1.51"/>
<path d="M958.125 574.444L909.375 629.444L985 626.667L958.125 574.444Z" fill="#057272" stroke="#057272" stroke-width="1.51"/>
<path d="M847.5 453.889L900.625 526.667L944.375 408.889L847.5 453.889Z" fill="#1D7D7D" stroke="#1D7D7D" stroke-width="1.51"/>
<path d="M914.375 -11.1111L912.5 18.8889L980 22.7778L914.375 -11.1111Z" fill="#087373" stroke="#087373" stroke-width="1.51"/>
<path d="M944.375 200.556L860 221.111L951.25 306.111L944.375 200.556Z" fill="#358989" stroke="#358989" stroke-width="1.51"/>
<path d="M899.375 328.889L921.25 372.222L951.25 306.111L899.375 328.889Z" fill="#398C8C" stroke="#398C8C" stroke-width="1.51"/>
<path d="M926.875 147.222L944.375 200.556L975 175L926.875 147.222Z" fill="#1F7E7E" stroke="#1F7E7E" stroke-width="1.51"/>
<path d="M912.5 18.8889L885 22.2222L928.75 117.222L912.5 18.8889Z" fill="#0E7575" stroke="#0E7575" stroke-width="1.51"/>
<path d="M860 221.111L899.375 328.889L951.25 306.111L860 221.111Z" fill="#419090" stroke="#419090" stroke-width="1.51"/>
<path d="M900.625 526.667L909.375 629.444L958.125 574.444L900.625 526.667Z" fill="#0B7474" stroke="#0B7474" stroke-width="1.51"/>
<path d="M885 22.2222L874.375 121.111L928.75 117.222L885 22.2222Z" fill="#117676" stroke="#117676" stroke-width="1.51"/>
<path d="M900.625 526.667L828.75 557.778L909.375 629.444L900.625 526.667Z" fill="#137777" stroke="#137777" stroke-width="1.51"/>
<path d="M853.75 370L847.5 453.889L921.25 372.222L853.75 370Z" fill="#2D8787" stroke="#2D8787" stroke-width="1.51"/>
<path d="M926.875 147.222L855 191.667L944.375 200.556L926.875 147.222Z" fill="#248282" stroke="#248282" stroke-width="1.51"/>
<path d="M855 191.667L860 221.111L944.375 200.556L855 191.667Z" fill="#2D8787" stroke="#2D8787" stroke-width="1.51"/>
<path d="M921.25 372.222L847.5 453.889L944.375 408.889L921.25 372.222Z" fill="#268383" stroke="#268383" stroke-width="1.51"/>
<path d="M852.5 531.667L828.75 557.778L900.625 526.667L852.5 531.667Z" fill="#167979" stroke="#167979" stroke-width="1.51"/>
<path d="M874.375 121.111L855 191.667L926.875 147.222L874.375 121.111Z" fill="#228080" stroke="#228080" stroke-width="1.51"/>
<path d="M874.375 121.111L926.875 147.222L928.75 117.222L874.375 121.111Z" fill="#1A7B7B" stroke="#1A7B7B" stroke-width="1.51"/>
<path d="M860 221.111L805 310L899.375 328.889L860 221.111Z" fill="#459494" stroke="#459494" stroke-width="1.51"/>
<path d="M899.375 328.889L853.75 370L921.25 372.222L899.375 328.889Z" fill="#378B8B" stroke="#378B8B" stroke-width="1.51"/>
<path d="M791.25 66.1111L874.375 121.111L885 22.2222L791.25 66.1111Z" fill="#177979" stroke="#177979" stroke-width="1.51"/>
<path d="M847.5 453.889L852.5 531.667L900.625 526.667L847.5 453.889Z" fill="#187A7A" stroke="#187A7A" stroke-width="1.51"/>
<path d="M828.75 557.778L798.75 613.889L909.375 629.444L828.75 557.778Z" fill="#187A7A" stroke="#187A7A" stroke-width="1.51"/>
<path d="M885 22.2222L912.5 18.8889L914.375 -11.1111L885 22.2222Z" fill="#0F7575" stroke="#0F7575" stroke-width="1.51"/>
<path d="M825 -27.2222L885 22.2222L914.375 -11.1111L825 -27.2222Z" fill="#147777" stroke="#147777" stroke-width="1.51"/>
<path d="M847.5 453.889L816.875 485L852.5 531.667L847.5 453.889Z" fill="#1F7E7E" stroke="#1F7E7E" stroke-width="1.51"/>
<path d="M805 310L853.75 370L899.375 328.889L805 310Z" fill="#409191" stroke="#409191" stroke-width="1.51"/>
<path d="M805 310L797.5 337.222L853.75 370L805 310Z" fill="#429393" stroke="#429393" stroke-width="1.51"/>
<path d="M819.375 220.556L805 310L860 221.111L819.375 220.556Z" fill="#3F9191" stroke="#3F9191" stroke-width="1.51"/>
<path d="M801.25 176.111L855 191.667L874.375 121.111L801.25 176.111Z" fill="#298484" stroke="#298484" stroke-width="1.51"/>
<path d="M825 -27.2222L791.25 66.1111L885 22.2222L825 -27.2222Z" fill="#1A7B7B" stroke="#1A7B7B" stroke-width="1.51"/>
<path d="M796.25 457.778L847.5 453.889L853.75 370L796.25 457.778Z" fill="#2C8787" stroke="#2C8787" stroke-width="1.51"/>
<path d="M770 87.2222L801.25 176.111L874.375 121.111L770 87.2222Z" fill="#258282" stroke="#258282" stroke-width="1.51"/>
<path d="M791.25 66.1111L770 87.2222L874.375 121.111L791.25 66.1111Z" fill="#1E7D7D" stroke="#1E7D7D" stroke-width="1.51"/>
<path d="M762.5 -11.6667L791.25 66.1111L825 -27.2222L762.5 -11.6667Z" fill="#1F7E7E" stroke="#1F7E7E" stroke-width="1.51"/>
<path d="M797.5 337.222L796.25 457.778L853.75 370L797.5 337.222Z" fill="#368D8D" stroke="#368D8D" stroke-width="1.51"/>
<path d="M855 191.667L819.375 220.556L860 221.111L855 191.667Z" fill="#338B8B" stroke="#338B8B" stroke-width="1.51"/>
<path d="M816.875 485V551.111L852.5 531.667L816.875 485Z" fill="#1A7B7B" stroke="#1A7B7B" stroke-width="1.51"/>
<path d="M801.25 176.111L819.375 220.556L855 191.667L801.25 176.111Z" fill="#318A8A" stroke="#318A8A" stroke-width="1.51"/>
<path d="M816.875 551.111L828.75 557.778L852.5 531.667L816.875 551.111Z" fill="#1A7B7B" stroke="#1A7B7B" stroke-width="1.51"/>
<path d="M718.125 365L796.25 457.778L797.5 337.222L718.125 365Z" fill="#3C9191" stroke="#3C9191" stroke-width="1.51"/>
<path d="M796.25 457.778L816.875 485L847.5 453.889L796.25 457.778Z" fill="#268383" stroke="#268383" stroke-width="1.51"/>
<path d="M718.125 365L729.375 445.556L796.25 457.778L718.125 365Z" fill="#378E8E" stroke="#378E8E" stroke-width="1.51"/>
<path d="M721.875 231.111L805 310L819.375 220.556L721.875 231.111Z" fill="#449595" stroke="#449595" stroke-width="1.51"/>
<path d="M816.875 551.111L798.75 613.889L828.75 557.778L816.875 551.111Z" fill="#1C7C7C" stroke="#1C7C7C" stroke-width="1.51"/>
<path d="M746.25 567.778L798.75 613.889L816.875 551.111L746.25 567.778Z" fill="#1F7E7E" stroke="#1F7E7E" stroke-width="1.51"/>
<path d="M746.25 567.778L816.875 551.111V485L746.25 567.778Z" fill="#1F7E7E" stroke="#1F7E7E" stroke-width="1.51"/>
<path d="M796.25 457.778L693.75 486.111L816.875 485L796.25 457.778Z" fill="#2A8585" stroke="#2A8585" stroke-width="1.51"/>
<path d="M693.75 486.111L746.25 567.778L816.875 485L693.75 486.111Z" fill="#278181" stroke="#278181" stroke-width="1.51"/>
<path d="M801.25 176.111L721.875 231.111L819.375 220.556L801.25 176.111Z" fill="#39908F" stroke="#39908F" stroke-width="1.51"/>
<path d="M762.5 -11.6667L701.25 32.7778L791.25 66.1111L762.5 -11.6667Z" fill="#268181" stroke="#268181" stroke-width="1.51"/>
<path d="M729.375 445.556L693.75 486.111L796.25 457.778L729.375 445.556Z" fill="#318989" stroke="#318989" stroke-width="1.51"/>
<path d="M770 87.2222L696.875 190L801.25 176.111L770 87.2222Z" fill="#328A8A" stroke="#328A8A" stroke-width="1.51"/>
<path d="M703.75 328.333L797.5 337.222L805 310L703.75 328.333Z" fill="#4B9999" stroke="#4B9999" stroke-width="1.51"/>
<path d="M721.875 231.111L703.75 328.333L805 310L721.875 231.111Z" fill="#529D9C" stroke="#529D9C" stroke-width="1.51"/>
<path d="M733.75 79.4445L696.875 190L770 87.2222L733.75 79.4445Z" fill="#2F8787" stroke="#2F8787" stroke-width="1.51"/>
<path d="M701.25 32.7778L733.75 79.4444L791.25 66.1111L701.25 32.7778Z" fill="#288282" stroke="#288282" stroke-width="1.51"/>
<path d="M696.875 190L721.875 231.111L801.25 176.111L696.875 190Z" fill="#3C9191" stroke="#3C9191" stroke-width="1.51"/>
<path d="M746.25 567.778L713.125 611.667L798.75 613.889L746.25 567.778Z" fill="#268181" stroke="#268181" stroke-width="1.51"/>
<path d="M703.75 328.333L718.125 365L797.5 337.222L703.75 328.333Z" fill="#4A9999" stroke="#4A9999" stroke-width="1.51"/>
<path d="M733.75 79.4444L770 87.2222L791.25 66.1111L733.75 79.4444Z" fill="#248080" stroke="#248080" stroke-width="1.51"/>
<path d="M665.625 172.222L696.875 190L733.75 79.4445L665.625 172.222Z" fill="#3A8D8D" stroke="#3A8D8D" stroke-width="1.51"/>
<path d="M693.75 486.111L671.25 552.778L746.25 567.778L693.75 486.111Z" fill="#2E8484" stroke="#2E8484" stroke-width="1.51"/>
<path d="M665.625 -26.1111L701.25 32.7778L762.5 -11.6666L665.625 -26.1111Z" fill="#2E8484" stroke="#2E8484" stroke-width="1.51"/>
<path d="M639.375 105L665.625 172.222L733.75 79.4445L639.375 105Z" fill="#388B8B" stroke="#388B8B" stroke-width="1.51"/>
<path d="M646.25 317.222L703.75 328.333L721.875 231.111L646.25 317.222Z" fill="#59A1A1" stroke="#59A1A1" stroke-width="1.51"/>
<path d="M671.25 552.778L713.125 611.667L746.25 567.778L671.25 552.778Z" fill="#2E8484" stroke="#2E8484" stroke-width="1.51"/>
<path d="M655.625 510.556L671.25 552.778L693.75 486.111L655.625 510.556Z" fill="#338787" stroke="#338787" stroke-width="1.51"/>
<path d="M638.125 236.111L646.25 317.222L721.875 231.111L638.125 236.111Z" fill="#559F9F" stroke="#559F9F" stroke-width="1.51"/>
<path d="M718.125 365L629.375 414.444L729.375 445.556L718.125 365Z" fill="#429494" stroke="#429494" stroke-width="1.51"/>
<path d="M701.25 32.7778L639.375 105L733.75 79.4444L701.25 32.7778Z" fill="#318585" stroke="#318585" stroke-width="1.51"/>
<path d="M638.75 45.5555L639.375 105L701.25 32.7778L638.75 45.5555Z" fill="#358888" stroke="#358888" stroke-width="1.51"/>
<path d="M625.625 396.111L629.375 414.444L718.125 365L625.625 396.111Z" fill="#4B9898" stroke="#4B9898" stroke-width="1.51"/>
<path d="M629.375 414.444L693.75 486.111L729.375 445.556L629.375 414.444Z" fill="#3D8F8F" stroke="#3D8F8F" stroke-width="1.51"/>
<path d="M696.875 190L638.125 236.111L721.875 231.111L696.875 190Z" fill="#499898" stroke="#499898" stroke-width="1.51"/>
<path d="M703.75 328.333L646.25 317.222L718.125 365L703.75 328.333Z" fill="#539D9D" stroke="#539D9D" stroke-width="1.51"/>
<path d="M646.25 317.222L625.625 396.111L718.125 365L646.25 317.222Z" fill="#519C9C" stroke="#519C9C" stroke-width="1.51"/>
<path d="M671.25 552.778L601.875 616.667L713.125 611.667L671.25 552.778Z" fill="#358888" stroke="#358888" stroke-width="1.51"/>
<path d="M665.625 -26.1111L638.75 45.5556L701.25 32.7778L665.625 -26.1111Z" fill="#348787" stroke="#348787" stroke-width="1.51"/>
<path d="M665.625 172.222L638.125 236.111L696.875 190L665.625 172.222Z" fill="#479797" stroke="#479797" stroke-width="1.51"/>
<path d="M629.375 414.444L655.625 510.556L693.75 486.111L629.375 414.444Z" fill="#3D8E8E" stroke="#3D8E8E" stroke-width="1.51"/>
<path d="M587.5 343.333L625.625 396.111L646.25 317.222L587.5 343.333Z" fill="#58A0A0" stroke="#58A0A0" stroke-width="1.51"/>
<path d="M629.375 414.444L553.125 468.889L655.625 510.556L629.375 414.444Z" fill="#449292" stroke="#449292" stroke-width="1.51"/>
<path d="M581.875 -2.2222L638.75 45.5556L665.625 -26.1111L581.875 -2.2222Z" fill="#3A8A8A" stroke="#3A8A8A" stroke-width="1.51"/>
<path d="M639.375 105L577.5 181.111L665.625 172.222L639.375 105Z" fill="#449393" stroke="#449393" stroke-width="1.51"/>
<path d="M577.5 181.111L638.125 236.111L665.625 172.222L577.5 181.111Z" fill="#4C9999" stroke="#4C9999" stroke-width="1.51"/>
<path d="M655.625 510.556L533.75 551.111L671.25 552.778L655.625 510.556Z" fill="#3B8B8B" stroke="#3B8B8B" stroke-width="1.51"/>
<path d="M533.75 551.111L601.875 616.667L671.25 552.778L533.75 551.111Z" fill="#3E8C8C" stroke="#3E8C8C" stroke-width="1.51"/>
<path d="M638.125 236.111L591.875 325.556L646.25 317.222L638.125 236.111Z" fill="#62A6A6" stroke="#62A6A6" stroke-width="1.51"/>
<path d="M553.75 238.333L591.875 325.556L638.125 236.111L553.75 238.333Z" fill="#5FA4A4" stroke="#5FA4A4" stroke-width="1.51"/>
<path d="M562.5 117.222L577.5 181.111L639.375 105L562.5 117.222Z" fill="#459393" stroke="#459393" stroke-width="1.51"/>
<path d="M591.875 325.556L587.5 343.333L646.25 317.222L591.875 325.556Z" fill="#5FA5A4" stroke="#5FA5A4" stroke-width="1.51"/>
<path d="M553.125 468.889L533.75 551.111L655.625 510.556L553.125 468.889Z" fill="#3C8C8C" stroke="#3C8C8C" stroke-width="1.51"/>
<path d="M575 408.333L553.125 468.889L629.375 414.444L575 408.333Z" fill="#499797" stroke="#499797" stroke-width="1.51"/>
<path d="M638.75 45.5555L562.5 117.222L639.375 105L638.75 45.5555Z" fill="#3D8C8C" stroke="#3D8C8C" stroke-width="1.51"/>
<path d="M577.5 181.111L553.75 238.333L638.125 236.111L577.5 181.111Z" fill="#539D9D" stroke="#539D9D" stroke-width="1.51"/>
<path d="M581.875 -2.22223L562.5 117.222L638.75 45.5556L581.875 -2.22223Z" fill="#3E8C8B" stroke="#3E8C8B" stroke-width="1.51"/>
<path d="M533.125 2.77777L562.5 117.222L581.875 -2.22223L533.125 2.77777Z" fill="#388989" stroke="#388989" stroke-width="1.51"/>
<path d="M587.5 343.333L575 408.333L625.625 396.111L587.5 343.333Z" fill="#549E9E" stroke="#549E9E" stroke-width="1.51"/>
<path d="M625.625 396.111L575 408.333L629.375 414.444L625.625 396.111Z" fill="#4E9A9A" stroke="#4E9A9A" stroke-width="1.51"/>
<path d="M533.125 2.77777L483.75 51.6667L562.5 117.222L533.125 2.77777Z" fill="#338787" stroke="#338787" stroke-width="1.51"/>
<path d="M518.125 -5.55554L533.125 2.77779L581.875 -2.22221L518.125 -5.55554Z" fill="#368888" stroke="#368888" stroke-width="1.51"/>
<path d="M506.875 572.778L583.75 657.222L601.875 616.667L506.875 572.778Z" fill="#398A8A" stroke="#398A8A" stroke-width="1.51"/>
<path d="M533.75 551.111L506.875 572.778L601.875 616.667L533.75 551.111Z" fill="#378888" stroke="#378888" stroke-width="1.51"/>
<path d="M506.875 572.778L548.75 682.222L583.75 657.222L506.875 572.778Z" fill="#378888" stroke="#378888" stroke-width="1.51"/>
<path d="M511.875 367.222L575 408.333L587.5 343.333L511.875 367.222Z" fill="#519C9C" stroke="#519C9C" stroke-width="1.51"/>
<path d="M553.75 238.333L470 288.889L591.875 325.556L553.75 238.333Z" fill="#5BA2A2" stroke="#5BA2A2" stroke-width="1.51"/>
<path d="M511.875 367.222L587.5 343.333L591.875 325.556L511.875 367.222Z" fill="#58A0A0" stroke="#58A0A0" stroke-width="1.51"/>
<path d="M470 288.889L511.875 367.222L591.875 325.556L470 288.889Z" fill="#57A0A0" stroke="#57A0A0" stroke-width="1.51"/>
<path d="M506.875 572.778L460 638.889L548.75 682.222L506.875 572.778Z" fill="#308585" stroke="#308585" stroke-width="1.51"/>
<path d="M483.75 51.6667L485.625 98.3334L562.5 117.222L483.75 51.6667Z" fill="#328787" stroke="#328787" stroke-width="1.51"/>
<path d="M507.5 216.111L553.75 238.333L577.5 181.111L507.5 216.111Z" fill="#4C9999" stroke="#4C9999" stroke-width="1.51"/>
<path d="M562.5 117.222L475.625 196.667L577.5 181.111L562.5 117.222Z" fill="#429393" stroke="#429393" stroke-width="1.51"/>
<path d="M458.125 401.667L553.125 468.889L575 408.333L458.125 401.667Z" fill="#429393" stroke="#429393" stroke-width="1.51"/>
<path d="M475.625 196.667L507.5 216.111L577.5 181.111L475.625 196.667Z" fill="#459696" stroke="#459696" stroke-width="1.51"/>
<path d="M511.875 367.222L458.125 401.667L575 408.333L511.875 367.222Z" fill="#469696" stroke="#469696" stroke-width="1.51"/>
<path d="M485.625 98.3333L475.625 196.667L562.5 117.222L485.625 98.3333Z" fill="#398C8C" stroke="#398C8C" stroke-width="1.51"/>
<path d="M458.125 401.667L477.5 480.556L553.125 468.889L458.125 401.667Z" fill="#398D8D" stroke="#398D8D" stroke-width="1.51"/>
<path d="M477.5 480.556L533.75 551.111L553.125 468.889L477.5 480.556Z" fill="#358888" stroke="#358888" stroke-width="1.51"/>
<path d="M507.5 216.111L470 288.889L553.75 238.333L507.5 216.111Z" fill="#4F9B9B" stroke="#4F9B9B" stroke-width="1.51"/>
<path d="M446.25 610.556L460 638.889L506.875 572.778L446.25 610.556Z" fill="#2B8383" stroke="#2B8383" stroke-width="1.51"/>
<path d="M518.125 -5.55554L483.75 51.6667L533.125 2.77779L518.125 -5.55554Z" fill="#318686" stroke="#318686" stroke-width="1.51"/>
<path d="M477.5 480.556L506.875 572.778L533.75 551.111L477.5 480.556Z" fill="#308585" stroke="#308585" stroke-width="1.51"/>
<path d="M477.5 480.556L381.25 533.333L506.875 572.778L477.5 480.556Z" fill="#288181" stroke="#288181" stroke-width="1.51"/>
<path d="M470 288.889L431.25 375.556L511.875 367.222L470 288.889Z" fill="#4C9A9A" stroke="#4C9A9A" stroke-width="1.51"/>
<path d="M385.625 7.77779L483.75 51.6667L518.125 -5.55554L385.625 7.77779Z" fill="#298282" stroke="#298282" stroke-width="1.51"/>
<path d="M390 -28.8889L385.625 7.77775L518.125 -5.55558L390 -28.8889Z" fill="#238080" stroke="#238080" stroke-width="1.51"/>
<path d="M425.625 196.667H475.625L485.625 98.3333L425.625 196.667Z" fill="#368C8C" stroke="#368C8C" stroke-width="1.51"/>
<path d="M475.625 196.667L470 288.889L507.5 216.111L475.625 196.667Z" fill="#499898" stroke="#499898" stroke-width="1.51"/>
<path d="M431.25 375.556L458.125 401.667L511.875 367.222L431.25 375.556Z" fill="#429494" stroke="#429494" stroke-width="1.51"/>
<path d="M381.25 533.333L446.25 610.556L506.875 572.778L381.25 533.333Z" fill="#268181" stroke="#268181" stroke-width="1.51"/>
<path d="M425.625 196.667L470 288.889L475.625 196.667H425.625Z" fill="#439595" stroke="#439595" stroke-width="1.51"/>
<path d="M362.5 113.333L425.625 196.667L436.875 80.5555L362.5 113.333Z" fill="#288484" stroke="#288484" stroke-width="1.51"/>
<path d="M425.625 196.667L386.25 222.778L470 288.889L425.625 196.667Z" fill="#419393" stroke="#419393" stroke-width="1.51"/>
<path d="M382.5 303.333L431.25 375.556L470 288.889L382.5 303.333Z" fill="#4B9999" stroke="#4B9999" stroke-width="1.51"/>
<path d="M458.125 401.667L403.125 407.778L477.5 480.556L458.125 401.667Z" fill="#358C8C" stroke="#358C8C" stroke-width="1.51"/>
<path d="M379.375 487.778L381.25 533.333L477.5 480.556L379.375 487.778Z" fill="#238080" stroke="#238080" stroke-width="1.51"/>
<path d="M385.625 7.77777L436.875 80.5555L483.75 51.6667L385.625 7.77777Z" fill="#248080" stroke="#248080" stroke-width="1.51"/>
<path d="M436.875 80.5555L425.625 196.667L485.625 98.3333L436.875 80.5555Z" fill="#2E8686" stroke="#2E8686" stroke-width="1.51"/>
<path d="M483.75 51.6667L436.875 80.5556L485.625 98.3333L483.75 51.6667Z" fill="#2A8282" stroke="#2A8282" stroke-width="1.51"/>
<path d="M403.125 407.778L379.375 487.778L477.5 480.556L403.125 407.778Z" fill="#2B8686" stroke="#2B8686" stroke-width="1.51"/>
<path d="M386.25 222.778L382.5 303.333L470 288.889L386.25 222.778Z" fill="#489797" stroke="#489797" stroke-width="1.51"/>
<path d="M363.75 459.444L379.375 487.778L403.125 407.778L363.75 459.444Z" fill="#298484" stroke="#298484" stroke-width="1.51"/>
<path d="M381.25 533.333L357.5 561.667L446.25 610.556L381.25 533.333Z" fill="#1D7D7D" stroke="#1D7D7D" stroke-width="1.51"/>
<path d="M431.25 375.556L403.125 407.778L458.125 401.667L431.25 375.556Z" fill="#3A9090" stroke="#3A9090" stroke-width="1.51"/>
<path d="M357.5 561.667L341.875 652.778L446.25 610.556L357.5 561.667Z" fill="#1C7C7C" stroke="#1C7C7C" stroke-width="1.51"/>
<path d="M362.5 113.333L358.75 211.667L425.625 196.667L362.5 113.333Z" fill="#2D8888" stroke="#2D8888" stroke-width="1.51"/>
<path d="M382.5 303.333L330 334.444L431.25 375.556L382.5 303.333Z" fill="#439393" stroke="#439393" stroke-width="1.51"/>
<path d="M385.625 7.77777L362.5 113.333L436.875 80.5556L385.625 7.77777Z" fill="#1D7D7D" stroke="#1D7D7D" stroke-width="1.51"/>
<path d="M330 334.444L403.125 407.778L431.25 375.556L330 334.444Z" fill="#3A8F8F" stroke="#3A8F8F" stroke-width="1.51"/>
<path d="M358.75 211.667L386.25 222.778L425.625 196.667L358.75 211.667Z" fill="#368D8D" stroke="#368D8D" stroke-width="1.51"/>
<path d="M300 147.778L358.75 211.667L362.5 113.333L300 147.778Z" fill="#268383" stroke="#268383" stroke-width="1.51"/>
<path d="M303.75 23.8889L362.5 113.333L385.625 7.77777L303.75 23.8889Z" fill="#177979" stroke="#177979" stroke-width="1.51"/>
<path d="M335 297.778L382.5 303.333L386.25 222.778L335 297.778Z" fill="#449494" stroke="#449494" stroke-width="1.51"/>
<path d="M361.875 -19.4445L385.625 7.77775L390 -28.8889L361.875 -19.4445Z" fill="#1B7C7C" stroke="#1B7C7C" stroke-width="1.51"/>
<path d="M298.75 415.556L363.75 459.444L403.125 407.778L298.75 415.556Z" fill="#2A8686" stroke="#2A8686" stroke-width="1.51"/>
<path d="M330 334.444L298.75 415.556L403.125 407.778L330 334.444Z" fill="#338A8A" stroke="#338A8A" stroke-width="1.51"/>
<path d="M358.75 211.667L335 297.778L386.25 222.778L358.75 211.667Z" fill="#3C8F8F" stroke="#3C8F8F" stroke-width="1.51"/>
<path d="M379.375 487.778L330.625 475L381.25 533.333L379.375 487.778Z" fill="#1D7D7D" stroke="#1D7D7D" stroke-width="1.51"/>
<path d="M335 297.778L330 334.444L382.5 303.333L335 297.778Z" fill="#469494" stroke="#469494" stroke-width="1.51"/>
<path d="M361.875 -19.4445L303.75 23.8889L385.625 7.77777L361.875 -19.4445Z" fill="#177979" stroke="#177979" stroke-width="1.51"/>
<path d="M330.625 475L357.5 561.667L381.25 533.333L330.625 475Z" fill="#187A7A" stroke="#187A7A" stroke-width="1.51"/>
<path d="M275 251.111L335 297.778L358.75 211.667L275 251.111Z" fill="#3B8E8E" stroke="#3B8E8E" stroke-width="1.51"/>
<path d="M363.75 459.444L330.625 475L379.375 487.778L363.75 459.444Z" fill="#217F7F" stroke="#217F7F" stroke-width="1.51"/>
<path d="M243.75 64.4445L244.375 98.8889L303.75 23.8889L243.75 64.4445Z" fill="#087373" stroke="#087373" stroke-width="1.51"/>
<path d="M275 251.111L286.875 286.667L335 297.778L275 251.111Z" fill="#3F8F8F" stroke="#3F8F8F" stroke-width="1.51"/>
<path d="M232.5 610L341.875 652.778L357.5 561.667L232.5 610Z" fill="#117676" stroke="#117676" stroke-width="1.51"/>
<path d="M330.625 475L271.25 505L357.5 561.667L330.625 475Z" fill="#137878" stroke="#137878" stroke-width="1.51"/>
<path d="M300 147.778L293.75 150L358.75 211.667L300 147.778Z" fill="#258282" stroke="#258282" stroke-width="1.51"/>
<path d="M233.75 -8.8889L303.75 23.8889L361.875 -19.4445L233.75 -8.8889Z" fill="#107575" stroke="#107575" stroke-width="1.51"/>
<path d="M303.75 23.8889L244.375 98.8889L362.5 113.333L303.75 23.8889Z" fill="#107676" stroke="#107676" stroke-width="1.51"/>
<path d="M244.375 98.8889L300 147.778L362.5 113.333L244.375 98.8889Z" fill="#197B7B" stroke="#197B7B" stroke-width="1.51"/>
<path d="M298.75 415.556L330.625 475L363.75 459.444L298.75 415.556Z" fill="#238181" stroke="#238181" stroke-width="1.51"/>
<path d="M227.5 582.778L232.5 610L357.5 561.667L227.5 582.778Z" fill="#0A7373" stroke="#0A7373" stroke-width="1.51"/>
<path d="M293.75 150L275 251.111L358.75 211.667L293.75 150Z" fill="#2D8686" stroke="#2D8686" stroke-width="1.51"/>
<path d="M271.25 505L227.5 582.778L357.5 561.667L271.25 505Z" fill="#0D7474" stroke="#0D7474" stroke-width="1.51"/>
<path d="M240.625 398.333L298.75 415.556L330 334.444L240.625 398.333Z" fill="#2E8787" stroke="#2E8787" stroke-width="1.51"/>
<path d="M286.875 286.667L330 334.444L335 297.778L286.875 286.667Z" fill="#449292" stroke="#449292" stroke-width="1.51"/>
<path d="M298.75 415.556L271.25 505L330.625 475L298.75 415.556Z" fill="#1D7D7C" stroke="#1D7D7C" stroke-width="1.51"/>
<path d="M286.875 286.667L240.625 398.333L330 334.444L286.875 286.667Z" fill="#3A8C8C" stroke="#3A8C8C" stroke-width="1.51"/>
<path d="M177.5 362.222L240.625 398.333L286.875 286.667L177.5 362.222Z" fill="#328787" stroke="#328787" stroke-width="1.51"/>
<path d="M192.5 242.778L275 251.111L293.75 150L192.5 242.778Z" fill="#2A8383" stroke="#2A8383" stroke-width="1.51"/>
<path d="M186.875 147.222L192.5 242.778L293.75 150L186.875 147.222Z" fill="#1D7D7D" stroke="#1D7D7D" stroke-width="1.51"/>
<path d="M205.625 471.111L271.25 505L298.75 415.556L205.625 471.111Z" fill="#177979" stroke="#177979" stroke-width="1.51"/>
<path d="M240.625 398.333L205.625 471.111L298.75 415.556L240.625 398.333Z" fill="#1E7E7E" stroke="#1E7E7E" stroke-width="1.51"/>
<path d="M244.375 98.8889L293.75 150L300 147.778L244.375 98.8889Z" fill="#197A7A" stroke="#197A7A" stroke-width="1.51"/>
<path d="M233.75 -8.88892L243.75 64.4444L303.75 23.8889L233.75 -8.88892Z" fill="#087272" stroke="#087272" stroke-width="1.51"/>
<path d="M244.375 98.8889L186.875 147.222L293.75 150L244.375 98.8889Z" fill="#147878" stroke="#147878" stroke-width="1.51"/>
<path d="M275 251.111L192.5 242.778L286.875 286.667L275 251.111Z" fill="#378989" stroke="#378989" stroke-width="1.51"/>
<path d="M192.5 242.778L163.125 270.556L286.875 286.667L192.5 242.778Z" fill="#368888" stroke="#368888" stroke-width="1.51"/>
<path d="M163.125 270.556L177.5 362.222L286.875 286.667L163.125 270.556Z" fill="#3C8B8B" stroke="#3C8B8B" stroke-width="1.51"/>
<path d="M205 405L205.625 471.111L240.625 398.333L205 405Z" fill="#1B7C7C" stroke="#1B7C7C" stroke-width="1.51"/>
<path d="M233.75 -8.88892L195.625 43.3333L243.75 64.4444L233.75 -8.88892Z" fill="#007070" stroke="#007070" stroke-width="1.51"/>
<path d="M205.625 471.111L227.5 582.778L271.25 505L205.625 471.111Z" fill="#027070" stroke="#027070" stroke-width="1.51"/>
<path d="M163.125 270.556L148.75 280.556L177.5 362.222L163.125 270.556Z" fill="#3D8C8B" stroke="#3D8C8B" stroke-width="1.51"/>
<path d="M205.625 471.111L124.375 521.111L227.5 582.778L205.625 471.111Z" fill="#007070" stroke="#007070" stroke-width="1.51"/>
<path d="M205 -3.88892L195.625 43.3333L233.75 -8.88892L205 -3.88892Z" fill="#007070" stroke="#007070" stroke-width="1.51"/>
<path d="M177.5 362.222L205 405L240.625 398.333L177.5 362.222Z" fill="#268181" stroke="#268181" stroke-width="1.51"/>
<path d="M243.75 64.4444L195.625 43.3333L244.375 98.8889L243.75 64.4444Z" fill="#007070" stroke="#007070" stroke-width="1.51"/>
<path d="M195.625 43.3333L166.875 118.333L244.375 98.8889L195.625 43.3333Z" fill="#017070" stroke="#017070" stroke-width="1.51"/>
<path d="M166.875 118.333L186.875 147.222L244.375 98.8889L166.875 118.333Z" fill="#0E7575" stroke="#0E7575" stroke-width="1.51"/>
<path d="M124.375 521.111L167.5 599.445L227.5 582.778L124.375 521.111Z" fill="#007070" stroke="#007070" stroke-width="1.51"/>
<path d="M227.5 582.778L167.5 599.444L232.5 610L227.5 582.778Z" fill="#007070" stroke="#007070" stroke-width="1.51"/>
<path d="M167.5 599.445L168.75 628.333L232.5 610L167.5 599.445Z" fill="#007070" stroke="#007070" stroke-width="1.51"/>
<path d="M186.875 147.222L115.625 200L192.5 242.778L186.875 147.222Z" fill="#217F7F" stroke="#217F7F" stroke-width="1.51"/>
<path d="M205 405L129.375 440.556L205.625 471.111L205 405Z" fill="#187A7A" stroke="#187A7A" stroke-width="1.51"/>
<path d="M118.125 53.8889L166.875 118.333L195.625 43.3333L118.125 53.8889Z" fill="#007070" stroke="#007070" stroke-width="1.51"/>
<path d="M177.5 362.222L142.5 377.778L205 405L177.5 362.222Z" fill="#288282" stroke="#288282" stroke-width="1.51"/>
<path d="M142.5 377.778L129.375 440.556L205 405L142.5 377.778Z" fill="#1F7E7E" stroke="#1F7E7E" stroke-width="1.51"/>
<path d="M118.125 53.8889L195.625 43.3333L205 -3.88892L118.125 53.8889Z" fill="#007070" stroke="#007070" stroke-width="1.51"/>
<path d="M129.375 440.556L124.375 521.111L205.625 471.111L129.375 440.556Z" fill="#0E7575" stroke="#0E7575" stroke-width="1.51"/>
<path d="M80 -23.3333L118.125 53.8889L205 -3.88887L80 -23.3333Z" fill="#007070" stroke="#007070" stroke-width="1.51"/>
<path d="M118.125 53.8889L124.375 113.333L166.875 118.333L118.125 53.8889Z" fill="#047171" stroke="#047171" stroke-width="1.51"/>
<path d="M115.625 200L163.125 270.556L192.5 242.778L115.625 200Z" fill="#2E8484" stroke="#2E8484" stroke-width="1.51"/>
<path d="M148.75 280.556L142.5 377.778L177.5 362.222L148.75 280.556Z" fill="#348787" stroke="#348787" stroke-width="1.51"/>
<path d="M166.875 118.333L124.375 113.333L186.875 147.222L166.875 118.333Z" fill="#0F7575" stroke="#0F7575" stroke-width="1.51"/>
<path d="M124.375 113.333L115.625 200L186.875 147.222L124.375 113.333Z" fill="#177979" stroke="#177979" stroke-width="1.51"/>
<path d="M124.375 521.111L85.625 587.778L167.5 599.445L124.375 521.111Z" fill="#007070" stroke="#007070" stroke-width="1.51"/>
<path d="M85.625 587.778L115.625 613.333L167.5 599.444L85.625 587.778Z" fill="#007070" stroke="#007070" stroke-width="1.51"/>
<path d="M87.5 183.333L115.625 200L124.375 113.333L87.5 183.333Z" fill="#1A7B7B" stroke="#1A7B7B" stroke-width="1.51"/>
<path d="M115.625 200L73.125 253.333L148.75 280.556L115.625 200Z" fill="#308585" stroke="#308585" stroke-width="1.51"/>
<path d="M115.625 200L148.75 280.556L163.125 270.556L115.625 200Z" fill="#318686" stroke="#318686" stroke-width="1.51"/>
<path d="M167.5 599.445L115.625 613.333L168.75 628.333L167.5 599.445Z" fill="#007070" stroke="#007070" stroke-width="1.51"/>
<path d="M13.125 350.556L142.5 377.778L148.75 280.556L13.125 350.556Z" fill="#358888" stroke="#358888" stroke-width="1.51"/>
<path d="M73.125 253.333L13.125 350.556L148.75 280.556L73.125 253.333Z" fill="#3D8C8B" stroke="#3D8C8B" stroke-width="1.51"/>
<path d="M80 -23.3333L63.125 17.2222L118.125 53.8889L80 -23.3333Z" fill="#007070" stroke="#007070" stroke-width="1.51"/>
<path d="M66.875 546.667L85.625 587.778L124.375 521.111L66.875 546.667Z" fill="#007070" stroke="#007070" stroke-width="1.51"/>
<path d="M68.125 511.667L124.375 521.111L129.375 440.556L68.125 511.667Z" fill="#097373" stroke="#097373" stroke-width="1.51"/>
<path d="M56.25 452.222L68.125 511.667L129.375 440.556L56.25 452.222Z" fill="#117676" stroke="#117676" stroke-width="1.51"/>
<path d="M56.25 452.222L129.375 440.556L142.5 377.778L56.25 452.222Z" fill="#1C7C7C" stroke="#1C7C7C" stroke-width="1.51"/>
<path d="M13.125 350.556L56.25 452.222L142.5 377.778L13.125 350.556Z" fill="#248080" stroke="#248080" stroke-width="1.51"/>
<path d="M4.375 290L13.125 350.556L73.125 253.333L4.375 290Z" fill="#3E8C8B" stroke="#3E8C8B" stroke-width="1.51"/>
<path d="M118.125 53.8889L12.5 109.444L124.375 113.333L118.125 53.8889Z" fill="#037171" stroke="#037171" stroke-width="1.51"/>
<path d="M12.5 109.444L87.5 183.333L124.375 113.333L12.5 109.444Z" fill="#127777" stroke="#127777" stroke-width="1.51"/>
<path d="M68.125 511.667L66.875 546.667L124.375 521.111L68.125 511.667Z" fill="#007070" stroke="#007070" stroke-width="1.51"/>
<path d="M85.625 587.778L35 655.556L115.625 613.333L85.625 587.778Z" fill="#007070" stroke="#007070" stroke-width="1.51"/>
<path d="M87.5 183.333L73.125 253.333L115.625 200L87.5 183.333Z" fill="#268181" stroke="#268181" stroke-width="1.51"/>
<path d="M63.125 17.2222L12.5 109.444L118.125 53.8889L63.125 17.2222Z" fill="#007070" stroke="#007070" stroke-width="1.51"/>
<path d="M15 174.444L73.125 253.333L87.5 183.333L15 174.444Z" fill="#248080" stroke="#248080" stroke-width="1.51"/>
<path d="M12.5 109.444L15 174.444L87.5 183.333L12.5 109.444Z" fill="#177979" stroke="#177979" stroke-width="1.51"/>
<path d="M15 174.444L-9.375 251.111L73.125 253.333L15 174.444Z" fill="#2B8383" stroke="#2B8383" stroke-width="1.51"/>
<path d="M-12.5 603.333L35 655.556L85.625 587.778L-12.5 603.333Z" fill="#007070" stroke="#007070" stroke-width="1.51"/>
<path d="M66.875 546.667L-12.5 603.333L85.625 587.778L66.875 546.667Z" fill="#007070" stroke="#007070" stroke-width="1.51"/>
<path d="M13.125 350.556L-38.125 422.222L56.25 452.222L13.125 350.556Z" fill="#1F7E7E" stroke="#1F7E7E" stroke-width="1.51"/>
<path d="M5 -22.2222L63.125 17.2222L80 -23.3333L5 -22.2222Z" fill="#007070" stroke="#007070" stroke-width="1.51"/>
<path d="M-20 550.556L-12.5 603.333L66.875 546.667L-20 550.556Z" fill="#007070" stroke="#007070" stroke-width="1.51"/>
<path d="M-9.375 251.111L4.375 290L73.125 253.333L-9.375 251.111Z" fill="#358888" stroke="#358888" stroke-width="1.51"/>
<path d="M-58.125 13.3333L12.5 109.444L63.125 17.2222L-58.125 13.3333Z" fill="#007070" stroke="#007070" stroke-width="1.51"/>
<path d="M56.25 452.222L-58.125 483.333L68.125 511.667L56.25 452.222Z" fill="#0C7474" stroke="#0C7474" stroke-width="1.51"/>
<path d="M-58.125 483.333L-20 550.556L68.125 511.667L-58.125 483.333Z" fill="#007070" stroke="#007070" stroke-width="1.51"/>
<path d="M-20 550.556L66.875 546.667L68.125 511.667L-20 550.556Z" fill="#007070" stroke="#007070" stroke-width="1.51"/>
<path d="M5 -22.2222L-58.125 13.3333L63.125 17.2222L5 -22.2222Z" fill="#007070" stroke="#007070" stroke-width="1.51"/>
<path d="M-38.125 422.222L-58.125 483.333L56.25 452.222L-38.125 422.222Z" fill="#157878" stroke="#157878" stroke-width="1.51"/>
<path d="M-58.125 13.3333L-49.375 114.444L12.5 109.444L-58.125 13.3333Z" fill="#007070" stroke="#007070" stroke-width="1.51"/>
<path d="M-53.125 364.444L-38.125 422.222L13.125 350.556L-53.125 364.444Z" fill="#298282" stroke="#298282" stroke-width="1.51"/>
<path d="M12.5 109.444L-41.875 153.889L15 174.444L12.5 109.444Z" fill="#157878" stroke="#157878" stroke-width="1.51"/>
<path d="M4.375 290L-58.75 296.667L13.125 350.556L4.375 290Z" fill="#3B8B8B" stroke="#3B8B8B" stroke-width="1.51"/>
<path d="M-41.875 153.889L-9.375 251.111L15 174.444L-41.875 153.889Z" fill="#207E7E" stroke="#207E7E" stroke-width="1.51"/>
<path d="M-8.125 -28.3333L-58.125 13.3334L5 -22.2222L-8.125 -28.3333Z" fill="#007070" stroke="#007070" stroke-width="1.51"/>
<path d="M-49.375 114.444L-41.875 153.889L12.5 109.444L-49.375 114.444Z" fill="#0F7575" stroke="#0F7575" stroke-width="1.51"/>
<path d="M-58.75 296.667L-53.125 364.444L13.125 350.556L-58.75 296.667Z" fill="#358787" stroke="#358787" stroke-width="1.51"/>
<path d="M-9.375 251.111L-58.75 296.667L4.37501 290L-9.375 251.111Z" fill="#398A8A" stroke="#398A8A" stroke-width="1.51"/>
</g>
<defs>
<clipPath id="clip0_822_27">
<rect width="1200" height="600" fill="white"/>
</clipPath>
</defs>
</svg>
