<?xml version="1.0" encoding="UTF-8"?>
<!-- Generator: Adobe Illustrator 25.4.1, SVG Export Plug-In . SVG Version: 6.00 Build 0)  -->
<svg version="1.1" id="Layer_1" xmlns="http://www.w3.org/2000/svg" xmlns:xlink="http://www.w3.org/1999/xlink" x="0px" y="0px" viewBox="0 0 64 64" style="enable-background:new 0 0 64 64;" xml:space="preserve">
<style type="text/css">
	.st0{fill:#62C8F8;}
	.st1{fill:#FFFFFF;}
</style>
<circle class="st0" cx="32" cy="32" r="32"/>
<path class="st1" d="M48.5,22.1c-0.7,0.1-1.3,0.3-2,0.4v-0.1c1.4-0.9,2.5-2.2,3.1-4c-0.3,0.1-0.5,0.2-0.7,0.3  c-1.2,0.7-2.5,1.1-3.8,1.4c-0.2,0.1-0.5,0-0.6-0.1c-1.9-1.8-4.2-2.5-6.7-2.1c-3.1,0.4-5.9,3.2-6.2,6.2c-0.1,1,0,2,0,3  C25.3,26.7,20.1,24,16,19.2c-1,1.8-1.3,3.6-0.8,5.4c0.4,1.9,1.5,3.4,3.1,4.6c0,0.1-0.1,0.1-0.1,0.2c-1.1-0.3-2.2-0.6-3.3-0.9  c0.2,3.8,2.2,6.3,5.9,7.5v0.1c-1.1,0-2.1,0-3.3,0c1.3,3.3,3.6,5,7.1,5.3c-3.3,2.5-7,3.4-11.1,3.1c0.1,0.1,0.1,0.2,0.2,0.2  c1.4,0.7,2.8,1.5,4.2,2c3.6,1.3,7.3,1.5,11.1,0.9c3.3-0.6,6.3-1.8,8.9-3.7c2.8-2.1,4.9-4.7,6.5-7.8c1.7-3.3,2.5-6.7,2.4-10.4  c0-0.2,0.2-0.5,0.3-0.6c0.6-0.5,1.2-1,1.8-1.6s1.1-1.3,1.6-1.9C49.8,21.7,49.2,21.9,48.5,22.1z"/>
</svg>