<?xml version="1.0" encoding="UTF-8"?>
<!-- Generator: Adobe Illustrator 20.1.0, SVG Export Plug-In . SVG Version: 6.00 Build 0)  -->
<svg version="1.1" id="Layer_1" xmlns="http://www.w3.org/2000/svg" xmlns:xlink="http://www.w3.org/1999/xlink" x="0px" y="0px" viewBox="0 0 64 64" style="enable-background:new 0 0 64 64;" xml:space="preserve">
<style type="text/css">
	.st0{fill:#007AB9;}
	.st1{fill:#FFFFFF;}
</style>
<g id="XMLID_50945_">
	<circle id="XMLID_14_" class="st0" cx="32" cy="32" r="32"/>
</g>
<g id="linkedin">
	<g>
		<path class="st1" d="M19.4,14.8c-2.5,0-4.1,1.6-4.1,3.7c0,2.1,1.6,3.7,4,3.7h0l0,0c2.5,0,4.1-1.7,4.1-3.7    C23.4,16.4,21.9,14.8,19.4,14.8z"/>
		<rect x="15.8" y="25.2" class="st1" width="7.2" height="21.6"/>
		<path class="st1" d="M40.6,24.7c-3.8,0-5.5,2.1-6.5,3.6v-3.1h-7.2c0.1,2,0,21.6,0,21.6h7.2v-12c0-0.6,0-1.3,0.2-1.8    c0.5-1.3,1.7-2.6,3.7-2.6c2.6,0,3.6,2,3.6,4.9v11.5h7.2V34.4C48.8,27.8,45.3,24.7,40.6,24.7z"/>
	</g>
</g>
</svg>