<svg width="64" height="64" viewBox="0 0 64 64" fill="none" xmlns="http://www.w3.org/2000/svg">
<path d="M32 0.300049C14.4 0.300049 0.199951 14.5 0.199951 32C0.199951 49.5 14.4 63.8 32 63.8C49.6 63.8 63.7 49.6001 63.7 32C63.7 14.4 49.5 0.300049 32 0.300049ZM32 55.8C18.9 55.8 8.19995 45.1001 8.19995 32C8.19995 18.9 18.9 8.20005 32 8.20005C45.1 8.20005 55.7999 18.9 55.7999 32C55.7999 45.1001 45.1 55.8 32 55.8Z" fill="white"/>
<path d="M34.7999 28.3001V14.2001H27.3999V28.3001V35.7001H27.5999L37.6999 45.8001L42.9999 40.6001L34.7999 32.4001V28.3001Z" fill="white"/>
</svg>
