<svg width="64" height="64" viewBox="0 0 64 64" fill="none" xmlns="http://www.w3.org/2000/svg">
<path d="M31.968 57.7118C27.677 57.7118 23.9467 57.1063 20.7771 55.8952C17.6076 54.6376 14.6819 52.6579 12 49.9563L20.8503 41.2227C22.7032 42.9461 24.6293 44.2737 26.6286 45.2052C28.6278 46.0902 30.7977 46.5327 33.1383 46.5327C35.0888 46.5327 36.5516 46.2533 37.5269 45.6943C38.5021 45.0888 38.9897 44.2737 38.9897 43.2489C38.9897 42.2242 38.5509 41.3857 37.6731 40.7336C36.8442 40.0349 35.7227 39.4294 34.3086 38.917C32.9432 38.3581 31.4316 37.7991 29.7737 37.2402C28.1158 36.6812 26.4579 36.0058 24.8 35.214C23.1421 34.4221 21.6061 33.4672 20.192 32.3493C18.8267 31.1849 17.7051 29.7642 16.8274 28.0873C15.9985 26.3639 15.584 24.2678 15.584 21.7991C15.584 18.5852 16.3642 15.8137 17.9246 13.4847C19.485 11.1557 21.6792 9.38574 24.5074 8.17467C27.3356 6.91703 30.6514 6.28821 34.4549 6.28821C38.2095 6.28821 41.696 6.89374 44.9143 8.1048C48.1813 9.26929 50.8632 10.9461 52.96 13.1354L44.0366 21.869C42.525 20.3785 40.989 19.2838 39.4286 18.5852C37.8682 17.8399 36.1615 17.4673 34.3086 17.4673C32.8457 17.4673 31.6754 17.7001 30.7977 18.1659C29.92 18.6317 29.4811 19.3304 29.4811 20.262C29.4811 21.2402 29.8956 22.0553 30.7246 22.7074C31.6023 23.313 32.7238 23.8719 34.0891 24.3843C35.5032 24.8967 37.0392 25.4323 38.6971 25.9913C40.355 26.5502 42.013 27.2256 43.6709 28.0175C45.3288 28.7627 46.8404 29.7409 48.2057 30.952C49.6198 32.1164 50.7413 33.5837 51.5703 35.3537C52.448 37.1237 52.8869 39.2664 52.8869 41.7817C52.8869 46.8588 51.0583 50.7948 47.4011 53.5895C43.7928 56.3377 38.6484 57.7118 31.968 57.7118ZM28.3109 50.0961H38.5509V64H28.3109V50.0961ZM38.5509 12.1572H28.3109V0H38.5509V12.1572Z" fill="white"/>
</svg>
