<?xml version="1.0" encoding="utf-8"?>
<!-- Generator: Adobe Illustrator 26.2.1, SVG Export Plug-In . SVG Version: 6.00 Build 0)  -->
<svg version="1.1" id="Layer_1" xmlns="http://www.w3.org/2000/svg" xmlns:xlink="http://www.w3.org/1999/xlink" x="0px" y="0px"
	 viewBox="0 0 200 61.51" style="enable-background:new 0 0 200 61.51;" xml:space="preserve">
<style type="text/css">
	.st0{fill:#FFFFFF;}
</style>
<g>
	<path class="st0" d="M60.51,61.51H0V1h60.51V61.51z M30.25,37.04l-7.79-25.1H12.05l13.66,38.63h9.09l13.66-38.63l-10.41,0
		L30.25,37.04z M103.33,21.32h-8.76v9.27h8.76c2.74,0,4.97-2.08,4.97-4.64S106.07,21.32,103.33,21.32z M70.21,1v60.51h60.51V1H70.21
		z M103.33,39.97h-8.76v10.59h-9.7V11.94h18.46c7.91,0,14.35,6.29,14.35,14.02S111.24,39.97,103.33,39.97z M200,61.51h-59.41V1H200
		V61.51z M165.23,40.86V11.94h-9.7v38.63l0,0h29.53v-9.7H165.23z"/>
</g>
</svg>
